<svg xmlns="http://www.w3.org/2000/svg" viewBox="0 0 16 16" id="R"><path fill-rule="evenodd" d="M6.006 3a.997.997 0 0 0-.031.002.997.997 0 0 0-.073.004.997.997 0 0 0-.879 1.154v3.67a.997.997 0 0 0 0 .334v3.824a.997.997 0 1 0 1.995 0v-2.99h.353l1.719 3.44a.997.997 0 1 0 1.783-.893L9.406 8.61c.936-.508 1.584-1.491 1.584-2.62 0-1.556-1.22-2.836-2.744-2.966A.997.997 0 0 0 8.016 3H6.02a.997.997 0 0 0-.015 0zm1.012 1.994H8c.57 0 .996.427.996.996 0 .57-.426.998-.996.998v.006a.997.997 0 0 0-.094.002.997.997 0 0 0-.066.008h-.822v-2.01z" color="#000" font-family="sans-serif" font-weight="400" overflow="visible" style="line-height:normal;text-indent:0;text-align:start;text-decoration-line:none;text-decoration-style:solid;text-decoration-color:#000;text-transform:none;block-progression:tb;white-space:normal;isolation:auto;mix-blend-mode:normal;solid-color:#000;solid-opacity:1" fill="#34a853" class="color000000 svgShape"></path></svg>